<svg width="100" height="100" viewBox="0 0 100 100" fill="none" xmlns="http://www.w3.org/2000/svg">
<circle cx="50.5" cy="29.5" r="12" stroke="black" stroke-width="7"/>
<mask id="path-2-inside-1_6_14" fill="white">
<path d="M87 84.5C87 76.1457 83.1545 68.1335 76.3094 62.2261C69.4643 56.3187 60.1804 53 50.5 53C40.8196 53 31.5357 56.3187 24.6906 62.2261C17.8455 68.1335 14 76.1457 14 84.5L50.5 84.5H87Z"/>
</mask>
<path d="M87 84.5C87 76.1457 83.1545 68.1335 76.3094 62.2261C69.4643 56.3187 60.1804 53 50.5 53C40.8196 53 31.5357 56.3187 24.6906 62.2261C17.8455 68.1335 14 76.1457 14 84.5L50.5 84.5H87Z" stroke="black" stroke-width="16" mask="url(#path-2-inside-1_6_14)"/>
</svg>
