<svg width="218" height="218" viewBox="0 0 218 218" fill="none" xmlns="http://www.w3.org/2000/svg">
<g clip-path="url(#clip0_105_2)">
<rect width="218" height="218" fill="black" fill-opacity="0.3"/>
<path d="M174.659 76.4631L143.308 46.2903C142.449 45.4642 141.284 45 140.07 45C138.856 45 137.691 45.4642 136.833 46.2903L45.3245 134.358C44.5003 135.152 44.0211 136.218 43.9856 137.339L43.0021 168.459C42.9637 169.674 43.4484 170.85 44.341 171.71C45.2012 172.537 46.366 173 47.5785 173C47.6249 173 47.6712 172.999 47.7183 172.998L80.0529 172.05C81.2184 172.016 82.3264 171.555 83.1512 170.762L174.659 82.6952C176.447 80.9743 176.447 78.1841 174.659 76.4631ZM77.9589 163.294L52.3031 164.046L53.084 139.354L108.715 85.8139L133.593 109.752L77.9589 163.294ZM140.069 103.521L115.19 79.583L140.07 55.6387L164.945 79.5795L140.069 103.521Z" fill="white"/>
</g>
<defs>
<clipPath id="clip0_105_2">
<rect width="217.855" height="217.855" fill="white"/>
</clipPath>
</defs>
</svg>
