<svg id="Ebene_1" data-name="Ebene 1" xmlns="http://www.w3.org/2000/svg" viewBox="0 0 85.99972 77.8244"><defs><style>.cls-1{fill:red;}</style></defs><path class="cls-1" d="M83.7712,15.8845A22.6167,22.6167,0,0,0,69.8282,11c-6.3098,0-13.1254,2.693-19.8284,7.8141C43.2969,13.693,36.4813,11,30.1715,11a22.6167,22.6167,0,0,0-13.943,4.8845c-6.22,4.7425-9.32359,10.7271-9.22628,17.7872C7.33687,57.8477,46.596,86.3746,48.2669,87.5771l1.7329,1.2473,1.733-1.2473c1.6713-1.2025,40.9304-29.7294,41.2647-53.9054C93.0948,26.6116,89.9911,20.627,83.7712,15.8845ZM67.8515,65.8588A181.74459,181.74459,0,0,1,49.9998,81.4652,181.70276,181.70276,0,0,1,32.1482,65.8588C19.696,53.3347,13.0525,42.1748,12.9354,33.5862c-.0704-5.1475,2.1839-9.3943,6.8912-12.9834a16.81215,16.81215,0,0,1,10.3449-3.6697c6.9474,0,13.5831,4.326,17.926,7.955l1.9023,1.5894,1.9023-1.5894c4.343-3.629,10.9787-7.955,17.9261-7.955a16.81236,16.81236,0,0,1,10.3449,3.6697c4.7073,3.5891,6.9616,7.8359,6.8912,12.9834C86.9472,42.1752,80.3032,53.3347,67.8515,65.8588Z" transform="translate(-7 -11)"/><polygon class="cls-1" points="8.809 36.979 16.404 49.553 33.255 66.596 43.532 74.064 60.83 59.574 73.149 45.723 82.149 28.17 82.66 18.723 76.085 7.362 64.596 2.894 48.766 7.043 43.404 12.277 28.596 3.404 15.064 4.043 7.085 12.404 3.255 20.447 8.809 36.979"/></svg>