<svg width="535" height="460" viewBox="0 0 535 460" fill="none" xmlns="http://www.w3.org/2000/svg">
<path d="M96.1493 123.25L267.5 22.8972L438.851 123.25H96.1493Z" stroke="black" stroke-width="5"/>
<circle cx="267" cy="20" r="20" fill="black"/>
<g filter="url(#filter0_d_8_48)">
<g filter="url(#filter1_d_8_48)">
<g filter="url(#filter2_d_8_48)">
<path d="M72.3829 350.888C78.1156 352.109 80.5912 358.911 76.9845 363.531L65.9611 377.653C62.1256 382.566 54.3822 381.342 52.2503 375.484L45.752 357.63C43.6201 351.773 48.7646 345.857 54.8612 347.156L72.3829 350.888Z" fill="#4E4E4E"/>
<path d="M146.18 339.631L140.753 324.719L69.722 350.572L71.9661 351.06C77.6624 352.301 80.1207 359.055 76.5545 363.667L75.1496 365.484L146.18 339.631Z" fill="#4E4E4E"/>
<path d="M485.454 207.702L160.821 333.458L156.027 320.285L485.454 207.702Z" fill="#4E4E4E"/>
<path d="M455.629 218.557L455.81 219.054L158.56 327.244L158.379 326.747L455.629 218.557Z" fill="#4E4E4E"/>
<path d="M132.469 278.759C136.587 277.261 141.14 279.384 142.639 283.502L174.3 370.49C175.799 374.608 173.675 379.161 169.558 380.66C165.44 382.158 160.886 380.035 159.388 375.917L127.727 288.929C126.228 284.811 128.351 280.258 132.469 278.759Z" fill="#4E4E4E"/>
<path d="M137.829 294.885C137.811 295.65 137.847 296.382 137.988 297.016C137.85 295.828 137.874 294.786 138.14 293.992C138 294.27 137.894 294.57 137.829 294.885Z" fill="#4E4E4E"/>
<path d="M135.939 297.43C135.965 297.037 135.961 296.663 135.895 296.341C135.947 296.947 135.911 297.481 135.744 297.894C135.829 297.748 135.895 297.592 135.939 297.43Z" fill="#4E4E4E"/>
<path d="M139.59 307.46C139.862 307.744 140.1 308.033 140.256 308.322C139.907 307.825 139.535 307.439 139.142 307.23C139.301 307.287 139.452 307.364 139.59 307.46Z" fill="#4E4E4E"/>
<path d="M163.389 365.11C162.883 364.535 162.44 363.952 162.141 363.375C162.799 364.374 163.487 365.156 164.201 365.594C163.914 365.471 163.641 365.309 163.389 365.11Z" fill="#4E4E4E"/>
<path d="M160.305 364.375C160.578 364.659 160.815 364.948 160.971 365.237C160.622 364.74 160.251 364.354 159.858 364.145C160.017 364.202 160.167 364.279 160.305 364.375Z" fill="#4E4E4E"/>
<path d="M156.654 354.345C156.681 353.952 156.677 353.578 156.611 353.256C156.663 353.862 156.626 354.396 156.46 354.809C156.545 354.663 156.61 354.507 156.654 354.345Z" fill="#4E4E4E"/>
<path d="M148.663 323.92C149.664 325.071 150.359 326.871 150.923 329.461C150.937 329.551 150.95 329.639 150.965 329.727C151.01 329.803 151.057 329.88 151.104 329.958C152.337 332.304 152.962 334.13 152.934 335.655C152.083 334.505 151.432 332.631 150.965 329.727C149.456 327.202 148.751 325.348 148.663 323.92Z" fill="#4E4E4E"/>
<path d="M77.0176 363.041C76.4487 363.92 75.7325 364.758 74.8502 365.593L77.0176 363.041Z" fill="#4E4E4E"/>
<path d="M137.988 297.016C137.847 296.382 137.811 295.65 137.829 294.885C137.894 294.57 137.999 294.27 138.14 293.992M137.988 297.016C137.85 295.828 137.874 294.786 138.14 293.992M137.988 297.016C138.587 299.55 139.051 300.918 140.131 303.272C145.265 313.302 148.526 314.855 154.489 316.06M138.14 293.992C138.313 293.649 138.539 293.339 138.812 293.075C139.307 292.597 139.931 292.292 140.607 292.198C141.283 292.104 141.979 292.226 142.608 292.548C143.237 292.87 143.77 293.378 144.141 294.008C144.511 294.637 144.702 295.36 144.688 296.085C144.675 296.81 144.459 297.504 144.067 298.08C143.675 298.655 143.124 299.087 142.485 299.319M138.14 293.992C138.373 293.293 138.794 292.787 139.455 292.541C140.829 291.926 141.718 291.914 142.89 292.698M135.895 296.341C135.961 296.663 135.965 297.037 135.939 297.43C135.895 297.592 135.829 297.748 135.744 297.894M135.895 296.341C135.947 296.947 135.911 297.481 135.744 297.894M135.895 296.341C135.612 295.056 135.38 294.365 134.822 293.182C132.144 288.154 130.339 287.43 127.003 286.941M135.744 297.894C135.639 298.073 135.505 298.237 135.345 298.378C135.056 298.634 134.697 298.804 134.314 298.866C133.931 298.929 133.541 298.882 133.194 298.73C132.846 298.579 132.556 298.33 132.361 298.015C132.166 297.701 132.074 297.335 132.097 296.963C132.12 296.591 132.257 296.231 132.491 295.928C132.724 295.624 133.044 295.391 133.409 295.258M135.744 297.894C135.597 298.257 135.349 298.525 134.971 298.665C134.184 299.01 133.682 299.036 133.038 298.659M140.256 308.322C140.1 308.033 139.862 307.744 139.59 307.46C139.452 307.364 139.301 307.287 139.142 307.23M140.256 308.322C139.907 307.825 139.535 307.439 139.142 307.23M140.256 308.322C140.865 309.488 141.132 310.167 141.464 311.432C142.645 317.005 141.728 318.72 139.486 321.239M139.142 307.23C138.947 307.16 138.738 307.121 138.525 307.115C138.14 307.105 137.755 307.206 137.422 307.404C137.088 307.602 136.82 307.889 136.651 308.229C136.482 308.568 136.42 308.945 136.472 309.311C136.525 309.678 136.69 310.017 136.947 310.287C137.203 310.557 137.54 310.745 137.914 310.827C138.288 310.91 138.682 310.883 139.048 310.75M139.142 307.23C138.796 307.046 138.434 307 138.054 307.136C137.229 307.378 136.828 307.681 136.577 308.383M162.141 363.375C162.44 363.952 162.883 364.535 163.389 365.11C163.641 365.309 163.914 365.471 164.201 365.594M162.141 363.375C162.799 364.374 163.487 365.156 164.201 365.594M162.141 363.375C160.971 361.049 160.447 359.703 159.761 357.205C157.247 346.221 158.747 342.936 162.54 338.18M164.201 365.594C164.554 365.745 164.926 365.837 165.305 365.864C165.991 365.912 166.666 365.745 167.244 365.383C167.822 365.02 168.277 364.479 168.552 363.828C168.827 363.177 168.909 362.445 168.788 361.725C168.667 361.004 168.348 360.328 167.872 359.781C167.396 359.234 166.784 358.842 166.114 358.653C165.443 358.464 164.744 358.487 164.105 358.72M164.201 365.594C164.829 365.979 165.477 366.097 166.141 365.86C167.589 365.448 168.277 364.886 168.671 363.531M160.971 365.237C160.815 364.948 160.578 364.659 160.305 364.375C160.167 364.279 160.017 364.202 159.858 364.145M160.971 365.237C160.622 364.74 160.251 364.354 159.858 364.145M160.971 365.237C161.581 366.404 161.847 367.082 162.18 368.347C163.36 373.92 162.443 375.635 160.202 378.154M159.858 364.145C159.662 364.075 159.454 364.036 159.241 364.03C158.855 364.02 158.471 364.121 158.137 364.319C157.804 364.517 157.535 364.804 157.366 365.144C157.197 365.483 157.135 365.86 157.188 366.226C157.241 366.593 157.406 366.932 157.662 367.202C157.919 367.472 158.255 367.66 158.629 367.742C159.003 367.825 159.398 367.798 159.763 367.665M159.858 364.145C159.512 363.961 159.149 363.915 158.769 364.051C157.944 364.293 157.544 364.596 157.293 365.298M156.611 353.256C156.677 353.578 156.681 353.952 156.654 354.345C156.61 354.507 156.545 354.663 156.46 354.809M156.611 353.256C156.663 353.862 156.626 354.396 156.46 354.809M156.611 353.256C156.328 351.971 156.096 351.28 155.537 350.097C152.859 345.069 151.054 344.345 147.718 343.856M156.46 354.809C156.355 354.988 156.22 355.152 156.061 355.293C155.771 355.549 155.413 355.719 155.03 355.781C154.647 355.844 154.257 355.797 153.909 355.645C153.561 355.494 153.272 355.245 153.076 354.93C152.881 354.616 152.789 354.25 152.812 353.878C152.836 353.506 152.973 353.146 153.206 352.843C153.44 352.539 153.759 352.306 154.125 352.173M156.46 354.809C156.313 355.172 156.065 355.441 155.687 355.58C154.899 355.925 154.397 355.951 153.753 355.574M140.12 322.979C144.403 321.888 146.97 321.975 148.663 323.92M148.663 323.92C149.664 325.071 150.359 326.871 150.923 329.461C150.937 329.551 150.95 329.639 150.965 329.727M148.663 323.92C148.751 325.348 149.456 327.202 150.965 329.727M148.663 323.92C148.468 320.747 151.326 319.681 155.213 318.048M150.965 329.727C151.432 332.631 152.083 334.505 152.934 335.655M150.965 329.727C151.01 329.803 151.057 329.88 151.104 329.958C152.337 332.304 152.962 334.13 152.934 335.655M152.934 335.655C154.825 338.211 157.699 337.191 161.726 335.943M152.934 335.655C152.888 338.233 150.977 339.951 146.995 341.868M140.504 324.809C142.162 334.207 141.976 338.544 137.482 342.797M104.715 337.835C106.373 347.233 106.187 351.57 101.692 355.823M131.557 328.066C133.215 337.464 133.029 341.801 128.534 346.053M95.7676 341.092C97.4252 350.49 97.2396 354.827 92.7449 359.08M122.61 331.322C124.267 340.72 124.082 345.057 119.587 349.31M86.8202 344.348C88.4779 353.747 88.2923 358.083 83.7976 362.336M113.662 334.579C115.32 343.977 115.134 348.314 110.64 352.567M77.8729 347.605C79.2052 355.158 79.3468 359.442 77.0176 363.041M77.0176 363.041C76.4487 363.92 75.7325 364.758 74.8502 365.593L77.0176 363.041ZM45.752 357.63L52.2503 375.484C54.3823 381.342 62.1256 382.566 65.9611 377.653L76.9845 363.531C80.5912 358.911 78.1157 352.109 72.3829 350.888L54.8612 347.156C48.7646 345.857 43.6201 351.773 45.752 357.63ZM140.753 324.719L146.18 339.631L75.1496 365.484L76.5545 363.667C80.1207 359.055 77.6624 352.301 71.9661 351.06L69.722 350.572L140.753 324.719ZM485.454 207.702L160.821 333.458L156.027 320.285L485.454 207.702ZM455.629 218.557L455.81 219.054L158.56 327.244L158.379 326.747L455.629 218.557ZM127.727 288.929L159.388 375.917C160.886 380.035 165.44 382.158 169.558 380.66C173.675 379.161 175.799 374.608 174.3 370.49L142.639 283.502C141.14 279.384 136.587 277.261 132.469 278.759C128.351 280.258 126.228 284.811 127.727 288.929Z" stroke="black"/>
</g>
<rect x="21.5" y="139.5" width="492" height="295" rx="2.5" stroke="black" stroke-width="5" shape-rendering="crispEdges"/>
</g>
<path fill-rule="evenodd" clip-rule="evenodd" d="M9 122C6.23858 122 4 124.239 4 127V447C4 449.761 6.23859 452 9.00001 452H526C528.761 452 531 449.761 531 447V127C531 124.239 528.761 122 526 122H9ZM24 137C21.2386 137 19 139.239 19 142V432C19 434.761 21.2386 437 24 437H511C513.761 437 516 434.761 516 432V142C516 139.239 513.761 137 511 137H24Z" fill="black"/>
</g>
<defs>
<filter id="filter0_d_8_48" x="0" y="122" width="535" height="338" filterUnits="userSpaceOnUse" color-interpolation-filters="sRGB">
<feFlood flood-opacity="0" result="BackgroundImageFix"/>
<feColorMatrix in="SourceAlpha" type="matrix" values="0 0 0 0 0 0 0 0 0 0 0 0 0 0 0 0 0 0 127 0" result="hardAlpha"/>
<feOffset dy="4"/>
<feGaussianBlur stdDeviation="2"/>
<feComposite in2="hardAlpha" operator="out"/>
<feColorMatrix type="matrix" values="0 0 0 0 0 0 0 0 0 0 0 0 0 0 0 0 0 0 0.25 0"/>
<feBlend mode="normal" in2="BackgroundImageFix" result="effect1_dropShadow_8_48"/>
<feBlend mode="normal" in="SourceGraphic" in2="effect1_dropShadow_8_48" result="shape"/>
</filter>
<filter id="filter1_d_8_48" x="15" y="137" width="505" height="308" filterUnits="userSpaceOnUse" color-interpolation-filters="sRGB">
<feFlood flood-opacity="0" result="BackgroundImageFix"/>
<feColorMatrix in="SourceAlpha" type="matrix" values="0 0 0 0 0 0 0 0 0 0 0 0 0 0 0 0 0 0 127 0" result="hardAlpha"/>
<feOffset dy="4"/>
<feGaussianBlur stdDeviation="2"/>
<feComposite in2="hardAlpha" operator="out"/>
<feColorMatrix type="matrix" values="0 0 0 0 0 0 0 0 0 0 0 0 0 0 0 0 0 0 0.25 0"/>
<feBlend mode="normal" in2="BackgroundImageFix" result="effect1_dropShadow_8_48"/>
<feBlend mode="normal" in="SourceGraphic" in2="effect1_dropShadow_8_48" result="shape"/>
</filter>
<filter id="filter2_d_8_48" x="40.7607" y="207.228" width="448.874" height="182.412" filterUnits="userSpaceOnUse" color-interpolation-filters="sRGB">
<feFlood flood-opacity="0" result="BackgroundImageFix"/>
<feColorMatrix in="SourceAlpha" type="matrix" values="0 0 0 0 0 0 0 0 0 0 0 0 0 0 0 0 0 0 127 0" result="hardAlpha"/>
<feOffset dy="4"/>
<feGaussianBlur stdDeviation="2"/>
<feComposite in2="hardAlpha" operator="out"/>
<feColorMatrix type="matrix" values="0 0 0 0 0 0 0 0 0 0 0 0 0 0 0 0 0 0 0.25 0"/>
<feBlend mode="normal" in2="BackgroundImageFix" result="effect1_dropShadow_8_48"/>
<feBlend mode="normal" in="SourceGraphic" in2="effect1_dropShadow_8_48" result="shape"/>
</filter>
</defs>
</svg>
