<svg width="100" height="100" viewBox="0 0 100 100" fill="none" xmlns="http://www.w3.org/2000/svg">
<path d="M16.0047 55.5557H70.3123C72.9011 55.5557 74.9998 53.0683 74.9998 50.0002C74.9998 46.932 72.9011 44.4446 70.3123 44.4446H16.0047L22.0653 37.2617C23.8959 35.0921 23.8959 31.5747 22.0653 29.4051C20.235 27.2354 17.2669 27.2354 15.4363 29.4051L1.37443 46.0713C1.26475 46.2013 1.161 46.3376 1.06287 46.4798C1.02006 46.5417 0.982871 46.6072 0.942559 46.6706C0.890997 46.752 0.837872 46.8317 0.790059 46.9165C0.74631 46.9939 0.708497 47.0743 0.668497 47.1535C0.63006 47.2298 0.589748 47.3043 0.554435 47.3828C0.51756 47.4643 0.486623 47.548 0.453498 47.6309C0.420998 47.712 0.386936 47.792 0.357873 47.875C0.329748 47.9561 0.306623 48.0387 0.281936 48.1209C0.254749 48.2098 0.225999 48.2976 0.202874 48.3883C0.181936 48.4706 0.166624 48.5539 0.149124 48.6372C0.129437 48.7294 0.107562 48.8213 0.0919367 48.9154C0.0759992 49.0113 0.0663117 49.1083 0.0547493 49.205C0.0447493 49.2876 0.0313119 49.3691 0.0244369 49.4528C0.00943692 49.632 0.00162445 49.8124 0.00131195 49.9924C0.00131195 49.995 0.000999451 49.998 0.000999451 50.0006C0.000999451 50.0031 0.00131195 50.0061 0.00131195 50.0087C0.00162445 50.1891 0.00943692 50.3691 0.0244369 50.5487C0.0313119 50.6313 0.0444368 50.7117 0.0541243 50.7935C0.0659992 50.8913 0.0756867 50.9891 0.0919367 51.0861C0.107562 51.1794 0.129124 51.2698 0.148811 51.3613C0.166624 51.4454 0.182249 51.5302 0.203499 51.6135C0.226311 51.7028 0.254749 51.7891 0.280999 51.8765C0.306311 51.9602 0.329436 52.0442 0.358186 52.1265C0.386623 52.208 0.420061 52.2861 0.451936 52.3657C0.485685 52.4505 0.51756 52.5361 0.55506 52.6194C0.589435 52.6954 0.628498 52.7676 0.665685 52.8413C0.706622 52.9231 0.745685 53.0057 0.790685 53.0854C0.836309 53.1665 0.887247 53.2424 0.936309 53.3205C0.978809 53.3876 1.01818 53.4568 1.0635 53.522C1.15693 53.6568 1.256 53.7861 1.35943 53.9102C1.36443 53.9161 1.3685 53.9228 1.3735 53.9287L15.436 70.5957C16.3516 71.6805 17.5509 72.2231 18.7506 72.2231C19.95 72.2227 21.15 71.6805 22.065 70.596C23.8956 68.4264 23.8956 64.909 22.0653 62.7394L16.0047 55.5557Z" fill="#FF0000"/>
<path d="M95.3135 0H35.9387C33.35 0 31.2512 2.4874 31.2512 5.55553V27.7777C31.2512 30.8458 33.35 33.3332 35.9387 33.3332C38.5274 33.3332 40.6262 30.8458 40.6262 27.7777V11.1111H90.626V88.8889H40.6262V72.222C40.6262 69.1538 38.5274 66.6664 35.9387 66.6664C33.35 66.6664 31.2512 69.1538 31.2512 72.222V94.4445C31.2512 97.5126 33.35 100 35.9387 100H95.3135C97.9023 100 100.001 97.5126 100.001 94.4445V5.55553C100.001 2.4874 97.9023 0 95.3135 0Z" fill="#FF0000"/>
</svg>
