<svg width="2429" height="629" viewBox="0 0 2429 629" fill="none" xmlns="http://www.w3.org/2000/svg">
<path d="M114.489 125.818L199.062 402.807H202.202L286.776 125.818H389.077L261.477 504H139.787L12.1875 125.818H114.489Z" fill="black"/>
<path d="M571.149 211.75L742.5 111.397L913.851 211.75H571.149Z" stroke="black" stroke-width="5"/>
<circle cx="742" cy="108.5" r="20" fill="black"/>
<g filter="url(#filter0_d_8_141)">
<g filter="url(#filter1_d_8_141)">
<g filter="url(#filter2_d_8_141)">
<path d="M547.383 439.388C553.116 440.609 555.591 447.411 551.985 452.031L540.961 466.153C537.126 471.066 529.382 469.842 527.25 463.984L520.752 446.13C518.62 440.273 523.765 434.357 529.861 435.656L547.383 439.388Z" fill="#4E4E4E"/>
<path d="M621.18 428.131L615.753 413.219L544.722 439.072L546.966 439.56C552.662 440.801 555.121 447.555 551.555 452.167L550.15 453.984L621.18 428.131Z" fill="#4E4E4E"/>
<path d="M960.454 296.202L635.821 421.958L631.027 408.785L960.454 296.202Z" fill="#4E4E4E"/>
<path d="M930.629 307.057L930.81 307.554L633.56 415.744L633.379 415.247L930.629 307.057Z" fill="#4E4E4E"/>
<path d="M607.469 367.259C611.587 365.761 616.14 367.884 617.639 372.002L649.3 458.99C650.799 463.108 648.675 467.661 644.558 469.16C640.44 470.658 635.886 468.535 634.388 464.417L602.727 377.429C601.228 373.311 603.351 368.758 607.469 367.259Z" fill="#4E4E4E"/>
<path d="M612.829 383.385C612.811 384.15 612.847 384.882 612.988 385.516C612.85 384.328 612.874 383.286 613.14 382.492C612.999 382.77 612.894 383.07 612.829 383.385Z" fill="#4E4E4E"/>
<path d="M610.939 385.93C610.965 385.537 610.961 385.163 610.895 384.841C610.947 385.447 610.911 385.981 610.744 386.394C610.829 386.248 610.895 386.092 610.939 385.93Z" fill="#4E4E4E"/>
<path d="M614.59 395.96C614.862 396.244 615.1 396.533 615.256 396.822C614.907 396.325 614.535 395.939 614.142 395.73C614.301 395.787 614.452 395.864 614.59 395.96Z" fill="#4E4E4E"/>
<path d="M638.389 453.61C637.883 453.035 637.44 452.452 637.141 451.875C637.799 452.874 638.487 453.656 639.201 454.094C638.914 453.971 638.641 453.809 638.389 453.61Z" fill="#4E4E4E"/>
<path d="M635.305 452.875C635.578 453.159 635.815 453.448 635.971 453.737C635.622 453.24 635.251 452.854 634.858 452.645C635.017 452.702 635.167 452.779 635.305 452.875Z" fill="#4E4E4E"/>
<path d="M631.654 442.845C631.681 442.452 631.677 442.078 631.611 441.756C631.663 442.362 631.626 442.896 631.46 443.309C631.545 443.163 631.61 443.007 631.654 442.845Z" fill="#4E4E4E"/>
<path d="M623.663 412.42C624.664 413.571 625.359 415.371 625.923 417.961C625.937 418.051 625.95 418.139 625.965 418.227C626.01 418.303 626.057 418.38 626.104 418.458C627.337 420.804 627.962 422.63 627.934 424.155C627.083 423.005 626.432 421.131 625.965 418.227C624.456 415.702 623.751 413.848 623.663 412.42Z" fill="#4E4E4E"/>
<path d="M552.018 451.541C551.449 452.42 550.732 453.258 549.85 454.093L552.018 451.541Z" fill="#4E4E4E"/>
<path d="M612.988 385.516C612.847 384.882 612.811 384.15 612.829 383.385C612.894 383.07 612.999 382.77 613.14 382.492M612.988 385.516C612.85 384.328 612.874 383.286 613.14 382.492M612.988 385.516C613.587 388.05 614.051 389.418 615.131 391.772C620.265 401.802 623.526 403.355 629.489 404.56M613.14 382.492C613.313 382.149 613.539 381.839 613.812 381.575C614.307 381.097 614.931 380.792 615.607 380.698C616.283 380.604 616.979 380.726 617.608 381.048C618.237 381.37 618.77 381.878 619.141 382.508C619.511 383.137 619.702 383.86 619.688 384.585C619.675 385.31 619.459 386.004 619.067 386.58C618.675 387.155 618.124 387.587 617.485 387.819M613.14 382.492C613.373 381.793 613.794 381.287 614.455 381.041C615.829 380.426 616.718 380.414 617.89 381.198M610.895 384.841C610.961 385.163 610.965 385.537 610.939 385.93C610.895 386.092 610.829 386.248 610.744 386.394M610.895 384.841C610.947 385.447 610.911 385.981 610.744 386.394M610.895 384.841C610.612 383.556 610.38 382.865 609.822 381.682C607.144 376.654 605.339 375.93 602.003 375.441M610.744 386.394C610.639 386.573 610.505 386.737 610.345 386.878C610.056 387.134 609.697 387.304 609.314 387.366C608.931 387.429 608.541 387.382 608.194 387.23C607.846 387.079 607.556 386.83 607.361 386.515C607.166 386.201 607.074 385.835 607.097 385.463C607.12 385.091 607.257 384.731 607.491 384.428C607.724 384.124 608.044 383.891 608.409 383.758M610.744 386.394C610.597 386.757 610.349 387.025 609.971 387.165C609.184 387.51 608.682 387.536 608.038 387.159M615.256 396.822C615.1 396.533 614.862 396.244 614.59 395.96C614.452 395.864 614.301 395.787 614.142 395.73M615.256 396.822C614.907 396.325 614.535 395.939 614.142 395.73M615.256 396.822C615.865 397.988 616.132 398.667 616.464 399.932C617.645 405.505 616.728 407.22 614.486 409.739M614.142 395.73C613.947 395.66 613.738 395.621 613.525 395.615C613.14 395.605 612.755 395.706 612.422 395.904C612.088 396.102 611.82 396.389 611.651 396.729C611.482 397.068 611.42 397.445 611.472 397.811C611.525 398.178 611.69 398.517 611.947 398.787C612.203 399.057 612.54 399.245 612.914 399.327C613.288 399.41 613.682 399.383 614.048 399.25M614.142 395.73C613.796 395.546 613.434 395.5 613.054 395.636C612.229 395.878 611.828 396.181 611.577 396.883M637.141 451.875C637.44 452.452 637.883 453.035 638.389 453.61C638.641 453.809 638.914 453.971 639.201 454.094M637.141 451.875C637.799 452.874 638.487 453.656 639.201 454.094M637.141 451.875C635.971 449.549 635.447 448.203 634.761 445.705C632.247 434.721 633.747 431.436 637.54 426.68M639.201 454.094C639.554 454.245 639.926 454.337 640.305 454.364C640.991 454.412 641.666 454.245 642.244 453.883C642.822 453.52 643.277 452.979 643.552 452.328C643.827 451.677 643.909 450.945 643.788 450.225C643.667 449.504 643.348 448.828 642.872 448.281C642.396 447.734 641.784 447.342 641.114 447.153C640.443 446.964 639.744 446.987 639.105 447.22M639.201 454.094C639.829 454.479 640.477 454.597 641.141 454.36C642.589 453.948 643.277 453.386 643.671 452.031M635.971 453.737C635.815 453.448 635.578 453.159 635.305 452.875C635.167 452.779 635.017 452.702 634.858 452.645M635.971 453.737C635.622 453.24 635.251 452.854 634.858 452.645M635.971 453.737C636.581 454.904 636.847 455.582 637.18 456.847C638.36 462.42 637.443 464.135 635.202 466.654M634.858 452.645C634.662 452.575 634.454 452.536 634.241 452.53C633.855 452.52 633.471 452.621 633.137 452.819C632.804 453.017 632.535 453.304 632.366 453.644C632.197 453.983 632.135 454.36 632.188 454.726C632.241 455.093 632.406 455.432 632.662 455.702C632.919 455.972 633.255 456.16 633.629 456.242C634.003 456.325 634.398 456.298 634.763 456.165M634.858 452.645C634.512 452.461 634.149 452.415 633.769 452.551C632.944 452.793 632.544 453.096 632.293 453.798M631.611 441.756C631.677 442.078 631.681 442.452 631.654 442.845C631.61 443.007 631.545 443.163 631.46 443.309M631.611 441.756C631.663 442.362 631.626 442.896 631.46 443.309M631.611 441.756C631.328 440.471 631.096 439.78 630.537 438.597C627.859 433.569 626.054 432.845 622.718 432.356M631.46 443.309C631.355 443.488 631.22 443.652 631.061 443.793C630.771 444.049 630.413 444.219 630.03 444.281C629.647 444.344 629.257 444.297 628.909 444.145C628.561 443.994 628.272 443.745 628.076 443.43C627.881 443.116 627.789 442.75 627.812 442.378C627.836 442.006 627.973 441.646 628.206 441.343C628.44 441.039 628.759 440.806 629.125 440.673M631.46 443.309C631.313 443.672 631.065 443.941 630.687 444.08C629.899 444.425 629.397 444.451 628.753 444.074M615.12 411.479C619.403 410.388 621.97 410.475 623.663 412.42M623.663 412.42C624.664 413.571 625.359 415.371 625.923 417.961C625.937 418.051 625.95 418.139 625.965 418.227M623.663 412.42C623.751 413.848 624.456 415.702 625.965 418.227M623.663 412.42C623.468 409.247 626.326 408.181 630.213 406.548M625.965 418.227C626.432 421.131 627.083 423.005 627.934 424.155M625.965 418.227C626.01 418.303 626.057 418.38 626.104 418.458C627.337 420.804 627.962 422.63 627.934 424.155M627.934 424.155C629.825 426.711 632.699 425.691 636.726 424.443M627.934 424.155C627.888 426.733 625.977 428.451 621.995 430.368M615.504 413.309C617.162 422.707 616.976 427.044 612.482 431.297M579.715 426.335C581.373 435.733 581.187 440.07 576.692 444.323M606.557 416.566C608.215 425.964 608.029 430.301 603.534 434.553M570.768 429.592C572.425 438.99 572.24 443.327 567.745 447.58M597.61 419.822C599.267 429.22 599.082 433.557 594.587 437.81M561.82 432.848C563.478 442.247 563.292 446.583 558.798 450.836M588.662 423.079C590.32 432.477 590.134 436.814 585.64 441.067M552.873 436.105C554.205 443.658 554.347 447.942 552.018 451.541M552.018 451.541C551.449 452.42 550.732 453.258 549.85 454.093L552.018 451.541ZM520.752 446.13L527.25 463.984C529.382 469.842 537.126 471.066 540.961 466.153L551.985 452.031C555.591 447.411 553.116 440.609 547.383 439.388L529.861 435.656C523.765 434.357 518.62 440.273 520.752 446.13ZM615.753 413.219L621.18 428.131L550.15 453.984L551.555 452.167C555.121 447.555 552.662 440.801 546.966 439.56L544.722 439.072L615.753 413.219ZM960.454 296.202L635.821 421.958L631.027 408.785L960.454 296.202ZM930.629 307.057L930.81 307.554L633.56 415.744L633.379 415.247L930.629 307.057ZM602.727 377.429L634.388 464.417C635.886 468.535 640.44 470.658 644.558 469.16C648.675 467.661 650.799 463.108 649.3 458.99L617.639 372.002C616.14 367.884 611.587 365.761 607.469 367.259C603.351 368.758 601.228 373.311 602.727 377.429Z" stroke="black"/>
</g>
<rect x="496.5" y="228" width="492" height="295" rx="2.5" stroke="black" stroke-width="5" shape-rendering="crispEdges"/>
</g>
<path fill-rule="evenodd" clip-rule="evenodd" d="M484 210.5C481.239 210.5 479 212.739 479 215.5V535.5C479 538.261 481.239 540.5 484 540.5H1001C1003.76 540.5 1006 538.261 1006 535.5V215.5C1006 212.739 1003.76 210.5 1001 210.5H484ZM499 225.5C496.239 225.5 494 227.739 494 230.5V520.5C494 523.261 496.239 525.5 499 525.5H986C988.761 525.5 991 523.261 991 520.5V230.5C991 227.739 988.761 225.5 986 225.5H499Z" fill="black"/>
</g>
<path d="M1316.04 239.199C1314.81 225.657 1309.33 215.132 1299.61 207.622C1290 199.99 1276.28 196.173 1258.43 196.173C1246.61 196.173 1236.76 197.712 1228.88 200.79C1221 203.867 1215.09 208.115 1211.15 213.531C1207.21 218.825 1205.18 224.919 1205.06 231.812C1204.81 237.475 1205.92 242.461 1208.38 246.77C1210.97 251.079 1214.66 254.895 1219.46 258.219C1224.39 261.42 1230.3 264.251 1237.19 266.713C1244.08 269.175 1251.84 271.33 1260.46 273.176L1292.96 280.562C1311.67 284.625 1328.17 290.042 1342.45 296.812C1356.85 303.583 1368.91 311.647 1378.64 321.003C1388.49 330.359 1395.94 341.131 1400.98 353.318C1406.03 365.506 1408.62 379.17 1408.74 394.312C1408.62 418.195 1402.58 438.692 1390.64 455.804C1378.7 472.916 1361.53 486.027 1339.12 495.136C1316.84 504.246 1289.94 508.801 1258.43 508.801C1226.79 508.801 1199.21 504.062 1175.7 494.582C1152.19 485.103 1133.9 470.7 1120.86 451.372C1107.81 432.045 1101.1 407.608 1100.73 378.062H1188.26C1188.99 390.25 1192.26 400.406 1198.04 408.531C1203.83 416.656 1211.77 422.812 1221.86 426.997C1232.08 431.183 1243.9 433.276 1257.32 433.276C1269.63 433.276 1280.09 431.614 1288.71 428.29C1297.45 424.966 1304.16 420.349 1308.84 414.44C1313.52 408.531 1315.92 401.76 1316.04 394.128C1315.92 386.988 1313.7 380.894 1309.39 375.847C1305.08 370.676 1298.44 366.244 1289.45 362.551C1280.59 358.735 1269.26 355.226 1255.47 352.026L1215.95 342.793C1183.21 335.283 1157.42 323.157 1138.58 306.415C1119.75 289.549 1110.39 266.775 1110.51 238.091C1110.39 214.701 1116.67 194.204 1129.35 176.599C1142.03 158.995 1159.57 145.269 1181.98 135.42C1204.38 125.572 1229.93 120.648 1258.61 120.648C1287.91 120.648 1313.33 125.634 1334.88 135.605C1356.54 145.454 1373.35 159.303 1385.29 177.153C1397.23 195.004 1403.32 215.686 1403.57 239.199H1316.04ZM1683.7 125.818H1774.92V369.753C1774.92 397.944 1768.21 422.504 1754.79 443.432C1741.37 464.237 1722.66 480.364 1698.65 491.812C1674.65 503.138 1646.76 508.801 1615 508.801C1582.87 508.801 1554.8 503.138 1530.8 491.812C1506.79 480.364 1488.14 464.237 1474.85 443.432C1461.55 422.504 1454.9 397.944 1454.9 369.753V125.818H1546.31V361.812C1546.31 374.862 1549.14 386.495 1554.8 396.713C1560.59 406.931 1568.65 414.933 1578.99 420.719C1589.34 426.505 1601.34 429.398 1615 429.398C1628.67 429.398 1640.61 426.505 1650.83 420.719C1661.17 414.933 1669.23 406.931 1675.02 396.713C1680.8 386.495 1683.7 374.862 1683.7 361.812V125.818ZM1832.21 504V125.818H1923.61V429.767H2080.94V504H1832.21ZM2051.03 125.818H2153.15L2233.1 284.071H2236.43L2316.38 125.818H2418.5L2280.19 377.693V504H2189.34V377.693L2051.03 125.818Z" fill="black"/>
<defs>
<filter id="filter0_d_8_141" x="475" y="210.5" width="535" height="338" filterUnits="userSpaceOnUse" color-interpolation-filters="sRGB">
<feFlood flood-opacity="0" result="BackgroundImageFix"/>
<feColorMatrix in="SourceAlpha" type="matrix" values="0 0 0 0 0 0 0 0 0 0 0 0 0 0 0 0 0 0 127 0" result="hardAlpha"/>
<feOffset dy="4"/>
<feGaussianBlur stdDeviation="2"/>
<feComposite in2="hardAlpha" operator="out"/>
<feColorMatrix type="matrix" values="0 0 0 0 0 0 0 0 0 0 0 0 0 0 0 0 0 0 0.25 0"/>
<feBlend mode="normal" in2="BackgroundImageFix" result="effect1_dropShadow_8_141"/>
<feBlend mode="normal" in="SourceGraphic" in2="effect1_dropShadow_8_141" result="shape"/>
</filter>
<filter id="filter1_d_8_141" x="490" y="225.5" width="505" height="308" filterUnits="userSpaceOnUse" color-interpolation-filters="sRGB">
<feFlood flood-opacity="0" result="BackgroundImageFix"/>
<feColorMatrix in="SourceAlpha" type="matrix" values="0 0 0 0 0 0 0 0 0 0 0 0 0 0 0 0 0 0 127 0" result="hardAlpha"/>
<feOffset dy="4"/>
<feGaussianBlur stdDeviation="2"/>
<feComposite in2="hardAlpha" operator="out"/>
<feColorMatrix type="matrix" values="0 0 0 0 0 0 0 0 0 0 0 0 0 0 0 0 0 0 0.25 0"/>
<feBlend mode="normal" in2="BackgroundImageFix" result="effect1_dropShadow_8_141"/>
<feBlend mode="normal" in="SourceGraphic" in2="effect1_dropShadow_8_141" result="shape"/>
</filter>
<filter id="filter2_d_8_141" x="515.761" y="295.728" width="448.874" height="182.412" filterUnits="userSpaceOnUse" color-interpolation-filters="sRGB">
<feFlood flood-opacity="0" result="BackgroundImageFix"/>
<feColorMatrix in="SourceAlpha" type="matrix" values="0 0 0 0 0 0 0 0 0 0 0 0 0 0 0 0 0 0 127 0" result="hardAlpha"/>
<feOffset dy="4"/>
<feGaussianBlur stdDeviation="2"/>
<feComposite in2="hardAlpha" operator="out"/>
<feColorMatrix type="matrix" values="0 0 0 0 0 0 0 0 0 0 0 0 0 0 0 0 0 0 0.25 0"/>
<feBlend mode="normal" in2="BackgroundImageFix" result="effect1_dropShadow_8_141"/>
<feBlend mode="normal" in="SourceGraphic" in2="effect1_dropShadow_8_141" result="shape"/>
</filter>
</defs>
</svg>
