<svg width="100" height="100" viewBox="0 0 100 100" fill="none" xmlns="http://www.w3.org/2000/svg">
<path d="M84.766 3.91921H63.4931V3.40609C63.4931 1.9488 62.3115 0.767212 60.8542 0.767212H39.1458C37.6885 0.767212 36.5069 1.9488 36.5069 3.40609V3.91921H15.234C13.7767 3.91921 12.5951 5.10079 12.5951 6.55809V16.9801C12.5951 18.4374 13.7767 19.619 15.234 19.619H84.766C86.2233 19.619 87.4049 18.4374 87.4049 16.9801V6.55809C87.4049 5.10079 86.2233 3.91921 84.766 3.91921Z" fill="#FF0000"/>
<path d="M80.8012 24.9668H19.1989C17.7416 24.9668 16.56 26.1484 16.56 27.6057V96.594C16.56 98.0513 17.7416 99.2328 19.1989 99.2328H80.8012C82.2585 99.2328 83.44 98.0513 83.44 96.594V27.6057C83.44 26.1484 82.2585 24.9668 80.8012 24.9668ZM37.4653 89.7364C37.4653 91.1937 36.2838 92.3753 34.8265 92.3753H32.3703C30.913 92.3753 29.7314 91.1937 29.7314 89.7364V34.4633C29.7314 33.006 30.913 31.8244 32.3703 31.8244H34.8265C36.2838 31.8244 37.4653 33.006 37.4653 34.4633V89.7364ZM53.8675 89.7364C53.8675 91.1937 52.6859 92.3753 51.2287 92.3753H48.7725C47.3152 92.3753 46.1336 91.1937 46.1336 89.7364V34.4633C46.1336 33.006 47.3152 31.8244 48.7725 31.8244H51.2287C52.6859 31.8244 53.8675 33.006 53.8675 34.4633V89.7364ZM70.2686 89.7364C70.2686 91.1937 69.087 92.3753 67.6297 92.3753H65.1736C63.7163 92.3753 62.5347 91.1937 62.5347 89.7364V34.4633C62.5347 33.006 63.7163 31.8244 65.1736 31.8244H67.6297C69.087 31.8244 70.2686 33.006 70.2686 34.4633V89.7364Z" fill="#FF0000"/>
</svg>
